inDegrees=yes
name=ik_S52_A01_T02
DataType=double
version=3
OpenSimVersion=4.3-2021-08-27-4bc7ad9
endheader
time	pelvis_tilt	pelvis_list	pelvis_rotation	pelvis_tx	pelvis_ty	pelvis_tz	hip_flexion_r	hip_adduction_r	hip_rotation_r	knee_angle_r	knee_angle_r_beta	ankle_angle_r	subtalar_angle_r	mtp_angle_r	hip_flexion_l	hip_adduction_l	hip_rotation_l	knee_angle_l	knee_angle_l_beta	ankle_angle_l	subtalar_angle_l	mtp_angle_l	lumbar_extension	lumbar_bending	lumbar_rotation	arm_flex_r	arm_add_r	arm_rot_r	elbow_flex_r	pro_sup_r	wrist_flex_r	wrist_dev_r	arm_flex_l	arm_add_l	arm_rot_l	elbow_flex_l	pro_sup_l	wrist_flex_l	wrist_dev_l
12.63999999999982	2.435422599192309	3.937509853088767	98.35313463797971	0	0.9399999999999999	0	3.092914955969753	5.153345826984746	-8.378811571565237	2.276157994966764	0.03972645130776255	0	0	0	6.800719104579597	-8.971333318579909	-3.589113968062293	43.13119619383972	0.7527813839061496	0	0	0	0	0	0	29.90428713899109	-29.9042871389911	4.23585687897572	74.27876642587621	85.7641433590215	0	0	29.90428713899109	-29.9042871389911	4.23585687897572	74.27876642587621	85.76414335887981	0	0
12.65999999999982	2.335710041627725	3.864845865413118	98.08748245181773	0	0.9399999999999999	0	3.113172785665196	5.063096718302544	-8.16588411752544	2.853132270262964	0.04979655211098943	0	0	0	8.47121926129816	-8.543998995188227	-3.161165762305588	42.27730135591354	0.7378781075185544	0	0	0	0	0	0	29.9662347612389	-29.96623476123891	4.241185300981725	74.35399121274288	85.75881493728768	0	0	29.9662347612389	-29.96623476123891	4.241185300981725	74.35399121274288	85.75881493714702	0	0
12.67999999999982	2.178906228307058	3.897026819538668	97.66334484773071	0	0.9399999999999999	0	1.88934855140679	5.503167408475308	-7.642875706230742	2.468758685793689	0.04308796750430804	0	0	0	9.797213712646615	-8.054365258425149	-3.09368570957648	40.62636043755359	0.7090637527372742	0	0	0	0	0	0	29.98477427240599	-29.98477427240601	4.24284187503683	74.37741177127822	85.75715836331764	0	0	29.98477427240599	-29.98477427240601	4.24284187503683	74.37741177127822	85.75715836317724	0	0
12.69999999999982	2.018782555963993	4.006380045629892	97.24696850185745	0	0.9399999999999999	0	1.30448334365049	5.660120041257315	-6.695565500687335	2.728989350214595	0.04762984941310529	0	0	0	10.97364430627032	-7.566586481563837	-3.35125502385797	38.62013993289592	0.6740485994099756	0	0	0	0	0	0	30.02947205393843	-30.02947205393844	4.246724892639653	74.43224984680137	85.75327534591347	0	0	30.02947205393843	-30.02947205393844	4.246724892639653	74.43224984680137	85.75327534577376	0	0
12.71999999999982	1.933570745308356	4.175449014449248	96.89783135356238	0	0.9399999999999999	0	0.5638100769730584	5.744078703742979	-6.013249712122212	3.386277246267625	0.05910168733273691	0	0	0	11.93346743415821	-7.124778909209338	-3.750759963606702	36.14871545359435	0.6309141050317768	0	0	0	0	0	0	30.08210045928086	-30.08210045928088	4.251240308187315	74.49598481141194	85.74875993059629	0	0	30.08210045928086	-30.08210045928088	4.251240308187315	74.49598481141194	85.7487599304574	0	0
12.73999999999982	1.965178868941114	4.265977433451397	96.74094654825838	0	0.9399999999999999	0	-0.1977457819441131	5.885034732455349	-6.025470742058772	3.533457527906687	0.0616704678413511	0	0	0	13.67988880447131	-6.583505081719729	-5.158930518078791	34.2163305911617	0.5971876267666294	0	0	0	0	0	0	30.12912297222811	-30.12912297222812	4.255268298160429	74.55283809741188	85.74473194082873	0	0	30.12912297222811	-30.12912297222812	4.255268298160429	74.55283809741188	85.74473194069067	0	0
12.75999999999982	2.080293041046113	4.099351163003233	96.61410872188138	0	0.9399999999999999	0	-0.712866327402474	6.117987534386383	-6.038702399656729	3.691094344600677	0.06442174931502399	0	0	0	13.85735190628381	-6.382135108806601	-5.323546391434503	30.15511055194411	0.5263059654343093	0	0	0	0	0	0	30.13864733118108	-30.13864733118109	4.256205231235873	74.56613353632153	85.74379500780202	0	0	30.13864733118108	-30.13864733118109	4.256205231235873	74.56613353632153	85.74379500766416	0	0
12.77999999999982	2.155132295962798	3.933667621675849	96.53559572127693	0	0.9399999999999999	0	-0.5738355511294281	6.129468917486259	-5.990564074446439	4.258521962152011	0.07432522950804195	0	0	0	14.74205018461005	-5.818900538531588	-6.649642095807464	26.79895932054293	0.4677300762514967	0	0	0	0	0	0	30.17238315482823	-30.17238315482825	4.259121014006397	74.60730281139661	85.74087922518056	0	0	30.17238315482823	-30.17238315482825	4.259121014006397	74.60730281139661	85.74087922504316	0	0
12.79999999999982	2.224734343493968	3.674313166647543	96.45028230737738	0	0.9399999999999999	0	-0.9472501138066702	6.356308028058248	-5.789426432290984	4.435570807301394	0.07741531479275227	0	0	0	15.59805486369446	-5.225549016689985	-7.965962722243681	23.22669823709152	0.4053823586044096	0	0	0	0	0	0	30.1810361447997	-30.18103614479971	4.259989651499575	74.61963446489878	85.74001058773278	0	0	30.1810361447997	-30.18103614479971	4.259989651499575	74.61963446489878	85.74001058759553	0	0
12.81999999999982	2.237429476667232	3.460869910721415	96.41054797379158	0	0.9399999999999999	0	-1.397636143355859	6.525164174736409	-5.469957264978861	4.318436361781527	0.07537093305093266	0	0	0	16.74791207791508	-4.190390031664871	-9.684538837858144	15.9365886417543	0.2781459433345436	0	0	0	0	0	0	30.19737764109039	-30.1973776410904	4.261480820723421	74.64073140487714	85.73851941858577	0	0	30.19737764109039	-30.1973776410904	4.261480820723421	74.64073140487714	85.7385194184488	0	0
12.83999999999982	2.266404007447939	3.40120550534386	96.33426155899782	0	0.9399999999999999	0	-1.955770475955475	6.703455640292944	-5.147269518275785	4.55810140481162	0.07955387715374168	0	0	0	17.02403200700849	-3.709458105382037	-9.770707322307993	12.14821171474003	0.2120262926515596	0	0	0	0	0	0	30.2028801820159	-30.20288018201591	4.262021052667915	74.64839609276652	85.73797918666938	0	0	30.2028801820159	-30.20288018201591	4.262021052667915	74.64839609276652	85.73797918653251	0	0
12.85999999999981	2.359663991983793	3.42995581344851	96.19939844231773	0	0.9399999999999999	0	-2.565814343831448	6.917553139953532	-4.843052440705232	4.41747890534255	0.07709955153562242	0	0	0	17.11354585182916	-3.261082837228729	-9.631645472977665	8.412371861671344	0.1468235868882899	0	0	0	0	0	0	30.20768948607907	-30.20768948607908	4.262491186992445	74.65506512150378	85.73750905236923	0	0	30.20768948607907	-30.20768948607908	4.262491186992445	74.65506512150378	85.73750905223245	0	0
12.87999999999981	2.536946766319954	3.328816612379693	96.02173441949199	0	0.9399999999999999	0	-2.998481222983192	7.176539763051288	-4.635494016962654	5.30367538975875	0.09256659800828373	0	0	0	17.25929437805039	-2.885059026461692	-9.477971691023402	4.93084793450256	0.08605953137223138	0	0	0	0	0	0	30.21256116376407	-30.21256116376408	4.262968458752405	74.66183584779479	85.73703178063423	0	0	30.21256116376407	-30.21256116376408	4.262968458752405	74.66183584779479	85.73703178049753	0	0
12.89999999999981	2.718787028962873	3.163646543134938	95.75141203798476	0	0.9399999999999999	0	-3.315204658223498	7.344310000513548	-4.504038470130341	5.877948409944386	0.1025895530158949	0	0	0	17.41963063120124	-2.610783154329551	-9.566898140323326	1.830049593288609	0.03194039087766935	0	0	0	0	0	0	30.21802985717437	-30.21802985717438	4.263506951233361	74.66947638881906	85.73649328818144	0	0	30.21802985717437	-30.21802985717438	4.263506951233361	74.66947638881906	85.7364932880449	0	0
12.91999999999981	2.929714096543256	2.87745681349184	95.41665067334496	0	0.9399999999999999	0	-3.502896088547817	7.452162216633319	-4.330275364956822	5.983011206743104	0.1044232447413863	0	0	0	17.58969776304987	-2.473914785179217	-10.13504173062203	1.727636240932648	0.03015294068105275	0	0	0	0	0	0	30.21948996578172	-30.21948996578173	4.263650892261885	74.67151883338234	85.73634934716041	0	0	30.21948996578172	-30.21948996578173	4.263650892261885	74.67151883338234	85.73634934702393	0	0
12.93999999999981	3.168339562688383	2.502963677382874	95.02244928755258	0	0.9399999999999999	0	-3.616285552485927	7.517728013845834	-4.225070518106651	6.523159293019713	0.1138506072952595	0	0	0	17.99804357609786	-2.375813919954992	-10.53201978196778	-0.9137618653634342	-0.01594815312975706	0	0	0	0	0	0	30.22463918560416	-30.22463918560417	4.264158948961216	74.67872794437173	85.73584129048757	0	0	30.22463918560416	-30.22463918560417	4.264158948961216	74.67872794437173	85.73584129035115	0	0
